<svg data-v-423bf9ae="" xmlns="http://www.w3.org/2000/svg" viewBox="0 0 321.24920066470463 163" class="iconAbove"><!----><!----><!----><g data-v-423bf9ae="" id="789d09d3-3e77-4602-8622-2a4180c21048" fill="white" transform="matrix(4.487658976332971,0,0,4.487658976332971,-3.567547502446928,102.05759488557992)"><path d="M0.81 8.40C0.66 9.83 1.64 10.71 3.42 10.71C5.03 10.71 6.57 10.04 6.87 8.43C7.14 7.03 6.27 6.52 5.45 6.30L3.58 5.84C3.19 5.74 2.87 5.52 2.97 5.11C3.07 4.56 3.78 4.26 4.56 4.26C5.36 4.26 5.89 4.56 5.81 5.33L7.20 5.33C7.49 3.99 6.58 3.01 4.84 3.01C3.30 3.01 1.85 3.65 1.53 5.22C1.30 6.43 2.04 6.96 2.95 7.20L4.72 7.64C5.29 7.80 5.50 8.05 5.40 8.53C5.26 9.25 4.37 9.46 3.70 9.46C2.65 9.46 2.23 8.90 2.25 8.18L0.81 8.40ZM13.58 3.22L12.82 7.18C12.54 8.64 11.58 9.41 10.57 9.41C9.58 9.41 9.44 8.75 9.65 7.63L10.49 3.22L8.93 3.22L8.08 7.69C7.74 9.42 8.04 10.71 10.05 10.71C11.00 10.71 11.82 10.28 12.52 9.45L12.32 10.50L13.75 10.50L15.13 3.22ZM16.91 10.50L17.63 6.73C17.88 5.46 18.44 4.33 19.70 4.33C20.43 4.33 20.73 4.84 20.54 5.88L19.66 10.50L21.21 10.50L21.99 6.34C22.22 5.19 22.89 4.33 23.97 4.33C24.91 4.33 24.96 5.08 24.79 5.98L23.93 10.50L25.48 10.50L26.42 5.52C26.74 3.89 26.08 3.01 24.63 3.01C23.72 3.01 22.83 3.39 22.18 4.35C22.05 3.50 21.43 3.01 20.37 3.01C19.40 3.01 18.65 3.36 17.98 4.26L18.17 3.22L16.74 3.22L15.36 10.50ZM28.70 10.50L29.41 6.73C29.67 5.46 30.23 4.33 31.49 4.33C32.21 4.33 32.52 4.84 32.33 5.88L31.44 10.50L33.00 10.50L33.78 6.34C34.01 5.19 34.68 4.33 35.76 4.33C36.69 4.33 36.75 5.08 36.58 5.98L35.71 10.50L37.27 10.50L38.21 5.52C38.53 3.89 37.87 3.01 36.41 3.01C35.50 3.01 34.62 3.39 33.96 4.35C33.84 3.50 33.22 3.01 32.16 3.01C31.19 3.01 30.44 3.36 29.76 4.26L29.96 3.22L28.53 3.22L27.15 10.50ZM45.51 8.37L44.10 8.06C43.71 8.93 42.92 9.42 42.14 9.42C41.13 9.42 40.38 8.76 40.59 7.28L42.95 7.28C44.53 7.28 45.89 6.80 45.93 5.17C45.96 4.00 44.97 3.01 43.27 3.01C41.31 3.01 39.59 4.35 39.10 6.86C38.63 9.37 39.82 10.71 41.79 10.71C43.43 10.71 44.74 9.93 45.51 8.37ZM43.01 4.31C43.72 4.31 44.39 4.61 44.38 5.19C44.37 5.88 43.89 6.13 43.12 6.13L40.84 6.13C41.26 4.89 42.20 4.31 43.01 4.31ZM47.85 10.50L48.55 6.82C48.82 5.40 49.62 4.47 50.82 4.47C51.25 4.47 51.49 4.59 51.74 4.77L52.36 3.39C52.07 3.12 51.70 3.01 51.14 3.01C50.19 3.01 49.52 3.50 48.87 4.48L49.11 3.22L47.68 3.22L46.30 10.50ZM58.06 10.04L59.37 3.22L57.96 3.22L57.79 4.17C57.50 3.47 56.92 3.01 56 3.01C54.08 3.01 52.60 4.47 52.14 6.83C51.80 8.60 52.25 9.84 53.28 10.37C52.18 10.42 51.66 11.07 51.60 11.76C51.53 12.98 52.75 13.58 54.10 13.58C56.66 13.58 57.72 11.84 58.06 10.04ZM57.29 6.83C56.95 8.54 56.01 9.37 54.99 9.37C53.96 9.37 53.37 8.54 53.69 6.83C54.03 5.14 54.95 4.31 55.96 4.31C56.87 4.31 57.62 5.14 57.29 6.83ZM54.56 10.67C55.33 10.67 56.03 10.35 56.56 9.79L56.48 10.25C56.27 11.47 55.57 12.32 54.33 12.32C53.68 12.32 52.93 12.08 52.99 11.30C53.02 10.88 53.30 10.63 53.52 10.49C53.83 10.60 54.17 10.67 54.56 10.67ZM62.79 2.00L63.08 0.42L61.53 0.42L61.24 2.00ZM61.15 10.50L62.54 3.22L60.98 3.22L59.60 10.50ZM64.40 10.50L65.10 6.82C65.37 5.40 66.16 4.47 67.37 4.47C67.80 4.47 68.04 4.59 68.29 4.77L68.91 3.39C68.61 3.12 68.25 3.01 67.69 3.01C66.74 3.01 66.07 3.50 65.42 4.48L65.66 3.22L64.23 3.22L62.85 10.50ZM70.41 10.50L72.38 0.21L70.71 0.77L68.85 10.50Z"></path></g><!----><g data-v-423bf9ae="" id="057e4b31-fb7f-4e84-9283-6f8c926b8ba2" transform="matrix(1.0666424581111666,0,0,1.0666424581111666,31.402941339493253,1.0251187313002603)" stroke="none" fill="white"><defs><style>.fil0{fill:#000}</style></defs><path class="fil0" d="M215 55c7 3 13 5 21 1-5 3-10 4-19 2 8 5 19 8 26 3-6 5-13 4-23 1 5 3 17 4 23 3-6 2-21 0-25-2 3 2 14 4 20 4-7 1-12-1-14-1 2 2 9 3 17 3-8 1-15 0-24-4 3 2 13 5 19 6-6 0-12-2-14-2 4 2 9 3 13 4-8 0-14-3-22-7 6 4 9 5 15 8-3-1-7-2-12-4 3 1 7 4 10 5-7-2-13-4-18-9 6 7 11 8 21 12-12-3-16-5-24-12 3 4 8 8 17 12-8-2-15-7-18-11 4 5 7 7 13 10-7-3-10-4-15-10 3 5 5 7 11 10-5-2-6-3-10-7 2 3 5 6 11 9-6-2-10-6-14-10 2 3 4 5 6 7-4-3-5-4-7-7 2 5 3 6 8 10-6-3-6-4-10-8 3 3 5 6 9 8-3-1-7-5-9-8 3 6 4 8 9 13-5-4-10-9-13-15 0 0 3 7 6 11l4 3s-4-3-6-5c-2-3-2-4-2-4 0 2 1 4 3 6-3-3-4-5-6-8 1 2 2 5 4 7-3-4-4-5-4-6 0 2 1 5 1 7l-3-9c1 3 0 7 0 10 0-3-1-7-2-10 0 2-1 8-1 10 0-4 1-6-1-10 0 3-1 6-3 9 2-3 2-6 2-10-1 3-1 7-4 9 2-4 2-6 1-10 0 4 0 6-3 9 1-2 2-4 2-7-1 3-2 5-5 7 3-3 3-6 3-8 0 3-1 4-3 6 2-2 1-3 2-5-1 2-3 3-5 4 3-3 3-3 4-6-1 2-2 3-5 5 2-2 3-4 3-7-1 3-3 5-6 6 2-2 3-3 4-7-1 3-3 5-6 6 2-1 4-4 5-6-1 2-4 3-7 4 0 0 5-2 5-4-1 2-5 3-6 3 2-1 5-2 6-4-1 1-3 2-4 2 0 0 2-1 2-2-1 1-4 3-7 3 3-1 6-3 6-4 0 1-4 2-7 2 3-1 6-2 7-4-1 1-6 3-9 2 3 0 9-2 7-4 19 3 40 11 50-5zM159 14c50-17 54-24 82 8-32-24-35-16-78 2-12 4-16-6-4-10zM28 55c-7 3-12 5-20 1 4 3 10 4 18 2-7 5-18 8-26 3 6 5 14 4 24 1-6 3-17 4-24 3 7 2 21 0 26-2-4 2-14 4-21 4 7 1 12-1 14-1-2 2-9 3-17 3 9 1 15 0 24-4-2 2-13 5-18 6 6 0 11-2 13-2-4 2-8 3-13 4 8 0 15-3 23-7-6 4-9 5-16 8 4-1 8-2 12-4-2 1-7 4-10 5 7-2 13-4 18-9-5 7-11 8-20 12 11-3 16-5 23-12-3 4-7 8-16 12 7-2 14-7 17-11-4 5-6 7-12 10 6-3 9-4 15-10-4 5-6 7-12 10 5-2 7-3 10-7-2 3-5 6-11 9 6-2 11-6 14-10-2 3-3 5-6 7 5-3 5-4 8-7-3 5-4 6-9 10 6-3 6-4 10-8-2 3-4 6-8 8 3-1 7-5 8-8-2 6-4 8-9 13 6-4 10-9 13-15 0 0-3 7-6 11-3 3-4 3-4 3s4-3 6-5c2-3 3-4 3-4l-3 6c2-3 4-5 5-8-1 2-2 5-3 7 3-4 3-5 4-6-1 2-1 5-1 7l3-9c-1 3-1 7 0 10 0-3 1-7 1-10 0 2 1 8 2 10 0-4-1-6 0-10 0 3 1 6 4 9-2-3-3-6-2-10 0 3 1 7 3 9-1-4-1-6-1-10 0 4 0 6 4 9-2-2-2-4-2-7 1 3 2 5 4 7-2-3-3-6-2-8 0 3 0 4 3 6-2-2-2-3-2-5 1 2 3 3 4 4-2-3-3-3-3-6 1 2 1 3 4 5-2-2-3-4-3-7 2 3 3 5 7 6-3-2-4-3-5-7 2 3 4 5 7 6-3-1-5-4-5-6 1 2 4 3 6 4 0 0-4-2-4-4 0 2 5 3 6 3-2-1-6-2-6-4 1 1 2 2 4 2-1 0-2-1-3-2 1 1 4 3 7 3-3-1-5-3-6-4 1 1 4 2 8 2-4-1-6-2-7-4 1 1 5 3 9 2-3 0-9-2-8-4-19 3-39 11-50-5zM85 14C34-3 31-10 2 22 35-2 37 6 81 24c12 4 16-6 4-10z"></path></g><!----></svg>